# xmcd
#
# Track frame offsets: 
#        150
#        19270
#        43295
#        69850
#        92692
#
# Disc length: 1517 seconds
#
# Revision: 0
# Processed by: cddbd v1.5.2PL0 Copyright (c) Steve Scherf et al.
# Submitted via: ExactAudioCopy v0.99pb5
#
DISCID=3a05eb05
DTITLE=Undaworld - Ghetto Overdose
DYEAR=1998
DGENRE=Rap
TTITLE0=My Life
TTITLE1=Ghetto Overdose
TTITLE2=Friends Change
TTITLE3=Selfmade
TTITLE4=Certified Defiant
EXTD=
EXTT0=
EXTT1=
EXTT2=
EXTT3=
EXTT4=
PLAYORDER=
